<svg width="30" height="31" viewBox="0 0 30 31" fill="none" xmlns="http://www.w3.org/2000/svg">
<path d="M29.6268 25.8556L22.4209 18.4108C21.9075 17.8796 21.2612 17.6672 20.978 17.9327C20.6947 18.2072 20.0485 17.9947 19.535 17.4547L19.4288 17.3485C22.6511 13.1082 22.3412 7.03544 18.4639 3.16694C14.2413 -1.05565 7.38954 -1.05565 3.16694 3.16694C-1.05565 7.38954 -1.05565 14.2413 3.16694 18.4727C7.10626 22.412 13.3206 22.6776 17.5698 19.2694L17.6141 19.3137C18.1275 19.8449 18.3222 20.4999 18.039 20.7744C17.7557 21.0488 17.9504 21.695 18.4639 22.235L25.6609 29.6799C26.1743 30.211 27.033 30.2287 27.5641 29.7153L29.5825 27.7589C30.1225 27.2366 30.1402 26.3868 29.6268 25.8556ZM16.0914 16.0914C13.179 19.0039 8.45182 19.0039 5.53939 16.0914C2.62695 13.179 2.6358 8.45182 5.53939 5.53939C8.44297 2.62695 13.179 2.6358 16.0826 5.53939C19.0039 8.45182 19.0039 13.1879 16.0914 16.0914Z" fill="#54FF9B"/>
<path d="M6.89453 10.0452C6.89453 9.23961 6.89453 8.43405 6.89453 7.61963C6.89453 7.44258 6.94765 7.37176 7.13355 7.37176C8.70042 7.37176 10.2584 7.35406 11.8165 7.37176C12.985 7.38061 13.941 8.09766 14.304 9.15994C14.8263 10.7003 13.8879 12.276 12.3476 12.6035C12.206 12.6389 12.144 12.692 12.1086 12.8425C11.8696 13.9579 10.9489 14.7635 9.79812 14.9051C8.47026 15.0733 7.20436 14.0553 6.94765 12.7806C6.91224 12.6124 6.90338 12.4442 6.90338 12.2671C6.90338 11.5235 6.90338 10.7888 6.90338 10.0452C6.91224 10.0452 6.90338 10.0452 6.89453 10.0452ZM8.32862 10.656C8.32862 11.196 8.31977 11.736 8.32862 12.276C8.32862 12.8957 8.72698 13.3737 9.30238 13.4799C10.0637 13.6216 10.7188 13.0727 10.7276 12.3025C10.7276 12.0104 10.7365 11.7183 10.7276 11.4173C10.7188 11.2491 10.7896 11.196 10.9489 11.2048C11.2588 11.2137 11.5597 11.2048 11.8696 11.2048C12.144 11.2048 12.3919 11.1075 12.5955 10.9216C12.9673 10.5852 13.1001 10.0717 12.923 9.61142C12.746 9.12453 12.3122 8.82355 11.7368 8.82355C10.6745 8.8147 9.60336 8.82355 8.53222 8.8147C8.36403 8.8147 8.31091 8.86781 8.31977 9.03601C8.33747 9.57601 8.32862 10.116 8.32862 10.656Z" fill="#54FF9B"/>
<path d="M13.595 14.9405C13.1347 14.9405 12.7363 14.5333 12.7363 14.0818C12.7452 13.6215 13.1347 13.232 13.595 13.2231C14.0642 13.2231 14.4625 13.6127 14.4537 14.0907C14.4537 14.551 14.0553 14.9405 13.595 14.9405Z" fill="#54FF9B"/>
</svg>
